<?xml version="1.0" encoding="UTF-8" standalone="no"?>
<svg
   width="24"
   height="24"
   viewBox="0 0 24 24"
   version="1.1"
   id="svg136"
   sodipodi:docname="sun.svg"
   inkscape:version="1.2.1 (9c6d41e, 2022-07-14)"
   xmlns:inkscape="http://www.inkscape.org/namespaces/inkscape"
   xmlns:sodipodi="http://sodipodi.sourceforge.net/DTD/sodipodi-0.dtd"
   xmlns="http://www.w3.org/2000/svg"
   xmlns:svg="http://www.w3.org/2000/svg">
  <defs
     id="defs140" />
  <sodipodi:namedview
     id="namedview138"
     borderopacity="0.25"
     inkscape:showpageshadow="2"
     inkscape:pageopacity="0.0"
     inkscape:pagecheckerboard="0"
     showgrid="false"
     inkscape:cx="16.663314"
     inkscape:cy="15.576576"
     inkscape:window-width="1309"
     inkscape:window-height="456"
     inkscape:window-x="0"
     inkscape:window-y="38"
     inkscape:window-maximized="0"
     inkscape:current-layer="svg136"
     inkscape:deskcolor="#d1d1d1"
     pagecolor="#ffffff"
     bordercolor="#000000"
     inkscape:zoom="8.2816659" />
  <path
     d="M0 0h24v24H0z"
     fill="none"
     id="path132" />
  <path
     d="m 12.043721,18.147266 c -3.3481655,0 -6.0722135,-2.723784 -6.0722135,-6.072214 0,-3.3481658 2.724048,-6.0722138 6.0722135,-6.0722138 3.34843,0 6.072214,2.724048 6.072214,6.0722138 0,3.34843 -2.723784,6.072214 -6.072214,6.072214 z"
     style="fill:#000000;fill-rule:nonzero;stroke:none;stroke-width:0.264009;stroke-linecap:butt;stroke-linejoin:miter;stroke-miterlimit:10;stroke-dasharray:none"
     stroke-linecap="round"
     id="path416" />
  <path
     d="m 10.36779,4.8438374 c -0.07709,0 -0.151277,-0.033529 -0.201967,-0.093987 -0.0631,-0.074979 -0.07947,-0.1787343 -0.04251,-0.2695535 l 1.675931,-4.12118518 c 0.04039,-0.0992675 0.137021,-0.16447779 0.244472,-0.16447779 0.107452,0 0.20408,0.0652103 0.244473,0.16447779 l 1.676195,4.12118518 c 0.03696,0.090819 0.02033,0.1945749 -0.04277,0.2695535 -0.06284,0.074979 -0.16263,0.1092998 -0.258202,0.087915 -1.067917,-0.2325922 -2.172268,-0.2325922 -3.239658,0 -0.01848,0.00422 -0.03722,0.00607 -0.05597,0.00607 z"
     style="fill:#000000;fill-rule:nonzero;stroke:none;stroke-width:0.264009;stroke-linecap:butt;stroke-linejoin:miter;stroke-miterlimit:10;stroke-dasharray:none"
     stroke-linecap="round"
     id="path418" />
  <path
     d="m 12.043721,23.955471 c -0.107451,0 -0.204079,-0.06495 -0.244472,-0.164478 l -1.675931,-4.121185 c -0.03696,-0.09082 -0.02059,-0.194575 0.04251,-0.269554 0.0631,-0.07498 0.162366,-0.108772 0.258201,-0.08791 1.06739,0.232856 2.171741,0.232856 3.239658,0 0.09584,-0.02112 0.195367,0.0132 0.258202,0.08791 0.0631,0.07472 0.07973,0.178734 0.04277,0.269554 l -1.676195,4.121185 c -0.04066,0.09953 -0.137285,0.164478 -0.244737,0.164478 z"
     style="fill:#000000;fill-rule:nonzero;stroke:none;stroke-width:0.264009;stroke-linecap:butt;stroke-linejoin:miter;stroke-miterlimit:10;stroke-dasharray:none"
     stroke-linecap="round"
     id="path420" />
  <path
     d="m 4.5484974,14.015256 c -0.033529,0 -0.067322,-0.0063 -0.099531,-0.01927 L 0.32778069,12.319789 C 0.2285132,12.279131 0.1633029,12.182504 0.1633029,12.075052 c 0,-0.107452 0.0652103,-0.204079 0.1647418,-0.244472 l 4.1211852,-1.675932 c 0.090555,-0.03696 0.1945748,-0.02059 0.2695535,0.04251 0.074979,0.0631 0.1087718,0.16263 0.087915,0.258201 -0.1164281,0.533563 -0.1755662,1.078742 -0.1755662,1.619697 0,0.540955 0.059138,1.08587 0.1755662,1.619961 0.020857,0.09557 -0.012937,0.195103 -0.087915,0.258201 -0.048578,0.04092 -0.1090359,0.06204 -0.170286,0.06204 z"
     style="fill:#000000;fill-rule:nonzero;stroke:none;stroke-width:0.264009;stroke-linecap:butt;stroke-linejoin:miter;stroke-miterlimit:10;stroke-dasharray:none"
     stroke-linecap="round"
     id="path422" />
  <path
     d="m 19.538945,14.015256 c -0.06099,0 -0.121708,-0.02112 -0.170022,-0.06204 -0.07498,-0.06283 -0.108771,-0.162365 -0.08791,-0.258201 0.116164,-0.533827 0.175303,-1.079006 0.175303,-1.619961 0,-0.540955 -0.05914,-1.086134 -0.175303,-1.619697 -0.02086,-0.09557 0.01294,-0.195103 0.08791,-0.258201 0.07472,-0.0631 0.178471,-0.07947 0.269554,-0.04251 l 4.121185,1.675932 c 0.09953,0.04039 0.164478,0.13702 0.164478,0.244472 0,0.107452 -0.06495,0.204079 -0.164478,0.244473 l -4.121185,1.676195 c -0.03221,0.01294 -0.066,0.01954 -0.09953,0.01954 z"
     style="fill:#000000;fill-rule:nonzero;stroke:none;stroke-width:0.264009;stroke-linecap:butt;stroke-linejoin:miter;stroke-miterlimit:10;stroke-dasharray:none"
     stroke-linecap="round"
     id="path424" />
  <path
     d="m 5.558861,8.2244765 c -0.00739,0 -0.015049,-2.64e-4 -0.022441,-0.00106 C 5.4387367,8.2149722 5.3537257,8.153194 5.3157084,8.0631668 L 3.5867115,3.9638944 C 3.544998,3.8648909 3.5674388,3.7505749 3.6432095,3.6745402 3.7192442,3.5985055 3.8338242,3.5765928 3.9325637,3.6180422 l 4.0992724,1.7289969 c 0.090291,0.038017 0.1520693,0.1230284 0.1602536,0.2204478 0.00845,0.097683 -0.038017,0.1919348 -0.1203882,0.2447366 C 7.6115333,6.1076499 7.1846302,6.451126 6.8020808,6.8334115 6.4197953,7.215961 6.0760552,7.642864 5.7808928,8.1030322 5.7320511,8.1790669 5.6480961,8.2244765 5.558861,8.2244765 Z"
     style="fill:#000000;fill-rule:nonzero;stroke:none;stroke-width:0.264009;stroke-linecap:butt;stroke-linejoin:miter;stroke-miterlimit:10;stroke-dasharray:none"
     stroke-linecap="round"
     id="path426" />
  <path
     d="m 20.257579,20.552919 c -0.03458,0 -0.06943,-0.0066 -0.1027,-0.02059 l -4.099008,-1.728997 c -0.09029,-0.03828 -0.15207,-0.123292 -0.160254,-0.220712 -0.0084,-0.09768 0.03802,-0.191934 0.120388,-0.245 0.460697,-0.295955 0.887864,-0.639695 1.269357,-1.021188 v 0 c 0.381493,-0.38123 0.725234,-0.808661 1.021188,-1.269357 0.05307,-0.08237 0.145997,-0.1291 0.245001,-0.120388 0.09742,0.0082 0.18243,0.07023 0.220711,0.160253 l 1.728997,4.099009 c 0.04145,0.099 0.01927,0.213583 -0.05676,0.289354 -0.05069,0.05095 -0.118276,0.07762 -0.186918,0.07762 z"
     style="fill:#000000;fill-rule:nonzero;stroke:none;stroke-width:0.264009;stroke-linecap:butt;stroke-linejoin:miter;stroke-miterlimit:10;stroke-dasharray:none"
     stroke-linecap="round"
     id="path428" />
  <path
     d="m 18.528582,8.2242125 c -0.0895,0 -0.17319,-0.045146 -0.222296,-0.1211803 C 18.010332,7.642072 17.666591,7.2151689 17.285098,6.8334115 v 0 C 16.903077,6.45139 16.47591,6.1076499 16.015741,5.8122235 15.933106,5.7594217 15.886905,5.6651703 15.895353,5.5674869 c 0.0082,-0.097683 0.07023,-0.1824304 0.160254,-0.2204478 l 4.099008,-1.7289969 c 0.09848,-0.041713 0.21332,-0.019537 0.289354,0.056498 0.07604,0.076035 0.09821,0.1903507 0.05676,0.2893542 l -1.728997,4.0992724 c -0.03828,0.090291 -0.123292,0.1520694 -0.220711,0.1602537 -0.0074,5.28e-4 -0.01478,7.92e-4 -0.02244,7.92e-4 z"
     style="fill:#000000;fill-rule:nonzero;stroke:none;stroke-width:0.264009;stroke-linecap:butt;stroke-linejoin:miter;stroke-miterlimit:10;stroke-dasharray:none"
     stroke-linecap="round"
     id="path430" />
  <path
     d="m 3.8296,20.552919 c -0.068642,0 -0.1362287,-0.02693 -0.1866545,-0.07736 -0.076035,-0.07603 -0.098476,-0.190351 -0.056498,-0.289354 l 1.7289969,-4.099009 c 0.038017,-0.09029 0.1230283,-0.152069 0.2204478,-0.160253 0.097683,-0.01135 0.1919347,0.03802 0.2447366,0.120388 0.2954264,0.459904 0.6391665,0.887071 1.0211879,1.269357 v 0 c 0.3817575,0.381757 0.8086605,0.725233 1.2696208,1.021188 0.082371,0.05307 0.1288365,0.147317 0.1203882,0.245 -0.00845,0.09742 -0.070227,0.182431 -0.1602536,0.220712 L 3.9322997,20.53259 c -0.033265,0.01373 -0.06785,0.02033 -0.1026997,0.02033 z"
     style="fill:#000000;fill-rule:nonzero;stroke:none;stroke-width:0.264009;stroke-linecap:butt;stroke-linejoin:miter;stroke-miterlimit:10;stroke-dasharray:none"
     stroke-linecap="round"
     id="path432" />
</svg>
