<?xml version="1.0" encoding="UTF-8" standalone="no"?>
<svg
   width="24"
   height="24"
   viewBox="0 0 24 24"
   version="1.1"
   id="svg136"
   sodipodi:docname="swap.svg"
   inkscape:version="1.2.1 (9c6d41e, 2022-07-14)"
   xmlns:inkscape="http://www.inkscape.org/namespaces/inkscape"
   xmlns:sodipodi="http://sodipodi.sourceforge.net/DTD/sodipodi-0.dtd"
   xmlns="http://www.w3.org/2000/svg"
   xmlns:svg="http://www.w3.org/2000/svg">
  <defs
     id="defs140" />
  <sodipodi:namedview
     id="namedview138"
     borderopacity="0.25"
     inkscape:showpageshadow="2"
     inkscape:pageopacity="0.0"
     inkscape:pagecheckerboard="0"
     showgrid="false"
     inkscape:zoom="9.1482106"
     inkscape:cx="11.805587"
     inkscape:cy="12.13352"
     inkscape:window-width="1309"
     inkscape:window-height="456"
     inkscape:window-x="0"
     inkscape:window-y="38"
     inkscape:window-maximized="0"
     inkscape:current-layer="svg136" />
  <path
     d="M0 0h24v24H0z"
     fill="none"
     id="path132" />
  <g
     id="g441"
     transform="translate(0,0.327504)">
    <path
       d="M 18.63,4.6 C 16.78,2.99 14.38,2 11.73,2 7.0799998,2 3.1499999,5.03 1.7699999,9.22 L 4.1299998,10 c 1.05,-3.19 4.0500001,-5.5 7.6000002,-5.5 1.95,0 3.73,0.72 5.12,1.88 L 13.23,10 h 9 V 1 Z"
       id="path134" />
    <path
       d="m 5.3700003,18.744992 c 1.85,1.61 4.2500001,2.6 6.8999997,2.6 4.65,0 8.58,-3.03 9.96,-7.22 l -2.36,-0.78 c -1.05,3.19 -4.05,5.5 -7.6,5.5 -1.95,0 -3.7299996,-0.72 -5.1199996,-1.88 l 3.6199996,-3.62 h -9 v 9 z"
       id="path134-7" />
  </g>
</svg>
